<svg id="svg" version="1.1" xmlns="http://www.w3.org/2000/svg" xmlns:xlink="http://www.w3.org/1999/xlink" width="400" height="400" viewBox="0, 0, 400,400"><g id="svgg"><path id="path0" d="M0.000 200.000 L 0.000 400.000 200.000 400.000 L 400.000 400.000 400.000 200.000 L 400.000 0.000 200.000 0.000 L 0.000 0.000 0.000 200.000 M321.388 8.361 C 321.521 8.780,321.609 10.175,321.585 11.461 C 321.461 18.016,321.694 18.388,324.928 16.802 C 327.838 15.375,328.260 15.016,328.590 13.684 C 328.843 12.666,330.262 10.793,330.770 10.806 C 331.749 10.832,331.993 11.522,331.415 12.631 C 331.079 13.274,330.804 14.280,330.802 14.867 C 330.801 15.454,330.440 16.774,330.000 17.800 C 328.330 21.697,329.072 23.609,332.557 24.390 C 336.434 25.259,337.367 27.220,334.663 28.816 C 332.490 30.098,331.902 32.050,333.041 34.200 C 334.031 36.069,333.873 38.802,332.669 40.639 C 330.895 43.346,330.818 55.872,332.416 81.400 C 332.609 84.480,332.938 95.550,333.148 106.000 C 333.626 129.866,333.798 132.491,334.977 133.923 C 336.415 135.669,336.460 136.282,335.348 138.922 C 332.223 146.339,332.454 148.030,336.858 149.978 C 339.003 150.927,339.533 152.067,338.370 153.230 C 337.390 154.210,337.395 155.014,338.391 156.083 C 339.363 157.126,339.216 157.825,337.132 162.091 C 334.988 166.478,334.937 167.637,336.846 168.624 C 342.149 171.366,342.944 174.720,338.461 175.437 C 336.139 175.808,336.117 176.668,338.266 183.300 C 338.819 185.004,336.541 184.062,335.150 182.010 C 333.675 179.837,332.769 179.535,331.696 180.860 C 329.384 183.717,328.985 183.751,327.747 181.201 C 326.251 178.120,323.783 177.051,322.200 178.800 C 320.412 180.776,319.003 179.564,318.458 175.583 C 318.114 173.067,317.752 172.564,316.000 172.165 C 313.947 171.698,313.356 171.071,311.600 167.492 L 309.800 163.824 309.668 157.212 C 309.529 150.215,309.834 146.539,311.144 139.400 C 312.135 134.004,312.622 124.106,313.602 89.400 C 313.801 82.360,314.069 75.865,314.197 74.967 C 314.324 74.068,314.078 71.008,313.650 68.167 C 313.221 65.325,312.751 61.110,312.604 58.800 C 312.458 56.490,312.169 53.250,311.963 51.600 C 311.756 49.950,311.486 47.700,311.362 46.600 C 311.238 45.500,310.967 43.970,310.760 43.200 C 310.554 42.430,310.022 38.290,309.580 34.000 C 309.137 29.710,308.411 24.859,307.967 23.220 C 305.941 15.751,311.176 10.438,315.904 15.165 C 317.940 17.201,320.786 15.871,320.229 13.143 C 319.586 9.995,319.531 8.766,320.006 8.192 C 320.669 7.394,321.097 7.447,321.388 8.361 M80.014 10.451 C 80.196 10.809,80.468 11.799,80.618 12.651 C 81.447 17.369,84.466 16.312,87.306 10.309 C 88.956 6.821,90.129 7.603,90.542 12.464 C 90.648 13.710,91.025 15.171,91.379 15.712 C 91.733 16.252,92.271 18.023,92.574 19.647 C 92.877 21.271,93.350 23.595,93.626 24.812 C 94.113 26.957,94.095 27.074,93.014 28.708 C 92.125 30.050,91.827 31.103,91.545 33.896 C 91.180 37.521,90.151 42.102,89.017 45.157 C 88.620 46.226,88.139 49.825,87.787 54.357 C 87.142 62.671,86.995 63.945,86.122 68.800 C 85.608 71.661,85.579 73.279,85.943 79.000 C 86.181 82.740,86.476 91.560,86.600 98.600 C 86.926 117.211,87.854 133.365,89.042 141.121 C 90.065 147.797,90.037 148.809,88.792 150.200 C 87.001 152.202,86.772 156.105,88.282 158.880 L 89.364 160.868 88.225 162.894 C 86.601 165.783,86.968 173.006,88.873 175.663 C 89.265 176.208,89.141 176.568,88.174 177.703 C 87.528 178.462,86.700 179.637,86.333 180.316 C 85.755 181.386,85.452 181.548,84.070 181.529 C 81.966 181.500,81.711 181.703,81.064 183.920 C 80.068 187.339,78.669 186.660,78.345 182.600 C 77.977 177.982,77.396 177.163,74.933 177.781 C 73.577 178.121,72.800 177.389,72.800 175.770 C 72.800 173.746,72.068 172.552,70.352 171.778 C 68.006 170.720,67.811 170.321,68.617 168.210 C 69.139 166.844,69.239 165.876,69.020 164.297 C 68.861 163.144,68.577 159.320,68.391 155.800 C 68.205 152.280,67.708 147.227,67.288 144.571 C 66.570 140.034,66.532 137.650,66.663 105.171 C 66.799 71.492,66.952 67.132,68.120 63.600 C 68.443 62.624,68.586 56.711,68.592 44.063 L 68.600 25.927 69.653 25.063 C 70.989 23.969,71.408 22.671,70.635 22.029 C 68.530 20.282,69.683 17.477,72.359 17.832 C 76.256 18.349,78.287 16.191,78.678 11.118 C 78.883 8.465,79.004 8.019,79.307 8.814 C 79.513 9.356,79.831 10.093,80.014 10.451 M248.310 81.265 C 249.031 81.473,250.497 82.083,251.568 82.622 C 253.625 83.655,255.187 83.849,256.364 83.219 C 257.439 82.644,258.701 83.745,259.226 85.715 C 259.882 88.180,260.597 88.800,262.783 88.800 C 265.582 88.800,267.848 90.583,268.270 93.119 C 269.036 97.715,268.391 110.028,266.988 117.600 C 263.848 134.543,263.759 180.566,266.854 186.937 C 267.804 188.891,267.846 188.620,266.103 191.800 C 264.198 195.277,265.356 200.046,268.494 201.647 C 270.991 202.922,271.056 205.109,268.632 206.265 C 266.889 207.097,266.745 207.978,267.889 210.800 C 269.051 213.666,269.025 214.372,267.658 217.111 C 265.481 221.471,265.661 223.613,268.331 225.113 C 271.411 226.844,271.623 229.955,268.694 230.431 C 265.433 230.961,264.952 232.485,266.844 236.289 C 267.529 237.666,267.983 239.068,267.853 239.405 C 267.561 240.168,266.297 240.691,266.109 240.127 C 266.033 239.898,265.417 239.101,264.742 238.355 C 264.066 237.610,263.090 236.340,262.572 235.533 C 261.418 233.733,260.251 233.847,259.293 235.855 C 258.219 238.107,257.072 237.708,256.264 234.800 C 255.470 231.944,254.984 231.811,251.381 233.460 L 249.065 234.520 248.356 233.644 C 247.864 233.038,247.660 232.140,247.693 230.724 C 247.736 228.818,247.637 228.599,246.234 227.473 C 244.020 225.697,244.012 225.633,243.789 209.066 C 243.543 190.702,242.942 178.253,242.145 175.000 C 241.717 173.254,241.453 168.187,241.175 156.400 C 240.965 147.490,240.623 139.030,240.416 137.600 C 240.208 136.170,239.842 131.885,239.601 128.078 C 239.360 124.271,238.961 120.671,238.715 120.078 C 238.286 119.049,237.580 111.362,237.502 106.885 C 237.475 105.280,237.675 104.509,238.332 103.685 C 241.365 99.884,241.733 97.393,239.423 96.292 C 235.517 94.429,237.207 91.684,242.965 90.534 C 248.108 89.508,248.846 89.011,247.706 87.342 C 245.623 84.295,244.800 82.916,244.800 82.473 C 244.800 81.525,245.792 80.388,246.399 80.639 C 246.730 80.775,247.590 81.057,248.310 81.265 M143.723 88.000 C 144.539 90.299,145.336 90.558,146.800 89.000 C 148.141 87.572,148.975 87.748,150.125 89.700 C 150.675 90.635,151.881 92.210,152.804 93.200 C 156.526 97.192,156.773 98.141,154.800 100.863 C 152.921 103.458,153.127 104.509,156.400 109.028 C 159.252 112.966,159.692 114.251,158.571 115.371 C 157.925 116.018,157.713 116.082,156.000 116.157 C 154.836 116.207,154.774 116.954,155.592 121.101 C 156.410 125.245,155.017 127.352,153.174 124.763 C 150.707 121.299,150.133 125.060,150.796 140.337 C 151.069 146.642,151.362 154.500,151.445 157.800 C 151.529 161.100,151.796 165.240,152.039 167.000 C 152.281 168.760,152.699 176.003,152.967 183.097 C 153.506 197.352,153.753 198.450,156.289 197.813 C 157.315 197.556,157.466 198.216,156.843 200.240 C 153.957 209.619,154.032 211.656,157.292 212.393 C 160.602 213.142,160.644 213.161,161.177 214.157 C 162.029 215.749,161.144 216.864,159.265 216.564 C 157.287 216.248,156.845 216.821,156.287 220.429 L 155.844 223.292 153.774 223.048 C 151.893 222.827,151.566 222.915,150.197 224.003 C 148.387 225.441,146.232 225.575,143.800 224.400 C 142.821 223.927,141.330 223.622,139.960 223.614 C 134.674 223.582,131.616 219.045,133.208 213.597 C 134.193 210.226,134.800 201.870,134.806 191.602 C 134.809 185.771,134.993 174.070,135.215 165.600 C 135.487 155.229,135.487 149.024,135.215 146.600 C 134.993 144.620,134.636 140.570,134.423 137.600 C 134.052 132.420,133.487 129.219,132.218 125.088 C 131.449 122.584,131.170 93.101,131.903 91.762 C 132.807 90.111,135.216 88.665,137.268 88.542 C 139.559 88.405,140.652 87.895,141.000 86.800 C 141.513 85.184,142.947 85.816,143.723 88.000 M204.613 123.240 C 204.759 123.702,204.682 124.278,204.440 124.520 C 203.723 125.237,203.937 126.757,204.860 127.504 C 206.773 129.052,207.200 129.653,207.200 130.798 C 207.200 131.458,207.584 133.106,208.053 134.462 C 208.751 136.478,208.862 137.460,208.660 139.842 C 208.435 142.502,208.495 142.853,209.348 143.878 C 210.857 145.693,211.245 146.710,211.268 148.917 C 211.280 150.063,211.619 152.350,212.022 154.000 C 212.426 155.650,212.879 157.990,213.029 159.200 C 213.180 160.410,213.540 161.983,213.829 162.695 C 215.883 167.753,216.195 198.569,214.280 207.200 C 213.670 209.950,212.894 214.000,212.556 216.200 C 212.219 218.400,211.423 221.730,210.789 223.600 C 210.155 225.470,209.427 228.347,209.173 229.993 C 208.918 231.639,208.527 233.439,208.304 233.993 C 207.018 237.183,207.347 239.808,209.155 240.776 C 210.427 241.457,210.429 243.022,209.160 244.238 C 207.720 245.618,207.422 247.059,208.021 249.737 C 208.447 251.643,208.408 252.180,207.675 254.444 C 207.219 255.850,206.738 258.620,206.604 260.600 C 206.090 268.213,205.142 270.559,202.182 271.546 C 200.138 272.227,200.128 272.241,199.412 275.700 C 199.138 277.025,198.050 277.160,197.000 276.000 C 195.932 274.820,194.492 274.975,193.700 276.354 C 192.059 279.213,190.545 278.743,190.131 275.246 C 189.779 272.271,188.767 271.623,186.225 272.748 C 185.221 273.192,184.400 273.726,184.400 273.935 C 184.400 274.474,183.417 274.782,182.478 274.536 C 180.739 274.081,181.439 271.169,183.838 268.884 C 185.435 267.363,185.111 266.286,182.600 264.764 C 179.445 262.852,179.855 260.849,183.652 259.634 C 187.271 258.476,187.467 256.100,187.820 209.000 C 188.070 175.749,188.097 174.862,189.038 168.748 C 190.370 160.090,190.328 157.646,188.800 154.938 C 187.388 152.437,187.322 151.515,188.400 149.400 C 189.664 146.921,189.392 145.678,187.146 143.665 C 184.843 141.601,184.890 139.258,187.265 137.759 C 189.203 136.536,189.306 134.943,187.503 134.083 C 185.980 133.356,185.414 132.200,186.101 131.219 C 186.479 130.680,186.810 130.562,187.219 130.820 C 189.514 132.272,192.613 130.725,193.757 127.558 C 194.458 125.617,195.683 125.254,196.837 126.644 C 197.605 127.570,198.875 127.274,200.376 125.820 C 201.159 125.062,202.250 124.001,202.800 123.463 C 204.061 122.229,204.283 122.202,204.613 123.240 M71.594 180.300 C 71.583 181.573,70.923 182.219,70.618 181.256 C 70.331 180.351,70.605 179.600,71.224 179.600 C 71.431 179.600,71.597 179.915,71.594 180.300 M299.800 279.715 C 310.553 279.890,313.410 282.055,312.391 289.260 C 311.589 294.936,308.515 295.682,286.400 295.568 C 267.437 295.470,268.659 295.008,267.943 302.550 C 267.731 304.778,267.393 307.950,267.192 309.600 C 266.991 311.250,266.467 315.660,266.028 319.400 C 265.555 323.434,264.881 327.176,264.373 328.600 C 262.598 333.571,261.514 349.719,261.674 368.800 L 261.800 383.800 260.689 385.689 C 259.238 388.159,256.694 389.692,254.049 389.692 C 251.971 389.692,247.470 387.116,247.035 385.679 C 245.357 380.123,245.792 342.023,247.643 332.400 C 247.876 331.190,248.412 328.817,248.835 327.127 C 249.258 325.436,249.875 321.566,250.207 318.527 C 250.538 315.487,250.980 311.720,251.187 310.155 C 251.850 305.158,251.810 298.039,251.116 297.345 C 249.683 295.912,243.339 295.653,228.737 296.433 C 218.833 296.961,217.857 296.840,215.239 294.755 C 210.663 291.112,211.513 285.194,217.092 281.857 C 217.618 281.542,229.738 280.500,237.000 280.144 C 249.629 279.527,276.747 279.341,299.800 279.715 M191.705 286.395 C 196.490 288.785,197.846 292.686,195.393 297.000 C 193.601 300.152,190.628 301.232,183.400 301.357 C 176.490 301.477,175.987 302.274,175.693 313.574 C 175.570 318.295,175.677 323.237,175.961 326.005 C 176.515 331.409,177.554 347.347,177.981 357.000 C 178.394 366.361,177.746 365.658,185.836 365.516 C 193.463 365.383,194.390 365.604,196.823 368.139 C 200.285 371.745,200.523 374.887,197.599 378.356 C 195.329 381.047,197.585 380.683,177.200 381.656 C 172.470 381.882,166.800 382.154,164.600 382.260 C 159.514 382.505,151.858 381.549,150.444 380.493 C 143.538 375.337,146.956 366.899,156.122 366.474 C 160.939 366.251,161.865 365.772,162.234 363.314 C 162.539 361.282,162.206 349.907,161.623 342.400 C 160.553 328.636,160.346 324.570,160.276 315.982 C 160.178 303.870,159.832 303.200,154.541 304.862 C 153.253 305.267,150.014 306.053,147.342 306.609 L 142.485 307.620 140.242 306.781 C 131.345 303.453,135.044 293.007,145.981 290.573 C 147.620 290.208,150.410 289.470,152.181 288.933 C 154.364 288.271,157.537 287.773,162.041 287.385 C 165.693 287.071,170.013 286.612,171.641 286.364 C 179.972 285.099,189.138 285.113,191.705 286.395 " stroke="none" fill="#09dbf4" fill-rule="evenodd"></path><path id="path1" d="M320.006 8.192 C 319.531 8.766,319.586 9.995,320.229 13.143 C 320.786 15.871,317.940 17.201,315.904 15.165 C 311.176 10.438,305.941 15.751,307.967 23.220 C 308.411 24.859,309.137 29.710,309.580 34.000 C 310.022 38.290,310.554 42.430,310.760 43.200 C 310.967 43.970,311.238 45.500,311.362 46.600 C 311.486 47.700,311.756 49.950,311.963 51.600 C 312.169 53.250,312.458 56.490,312.604 58.800 C 312.751 61.110,313.221 65.325,313.650 68.167 C 314.078 71.008,314.324 74.068,314.197 74.967 C 314.069 75.865,313.801 82.360,313.602 89.400 C 312.622 124.106,312.135 134.004,311.144 139.400 C 309.834 146.539,309.529 150.215,309.668 157.212 L 309.800 163.824 311.600 167.492 C 313.356 171.071,313.947 171.698,316.000 172.165 C 317.752 172.564,318.114 173.067,318.458 175.583 C 319.003 179.564,320.412 180.776,322.200 178.800 C 323.783 177.051,326.251 178.120,327.747 181.201 C 328.985 183.751,329.384 183.717,331.696 180.860 C 332.769 179.535,333.675 179.837,335.150 182.010 C 336.541 184.062,338.819 185.004,338.266 183.300 C 336.117 176.668,336.139 175.808,338.461 175.437 C 342.944 174.720,342.149 171.366,336.846 168.624 C 334.937 167.637,334.988 166.478,337.132 162.091 C 339.216 157.825,339.363 157.126,338.391 156.083 C 337.395 155.014,337.390 154.210,338.370 153.230 C 339.533 152.067,339.003 150.927,336.858 149.978 C 332.454 148.030,332.223 146.339,335.348 138.922 C 336.460 136.282,336.415 135.669,334.977 133.923 C 333.798 132.491,333.626 129.866,333.148 106.000 C 332.938 95.550,332.609 84.480,332.416 81.400 C 330.818 55.872,330.895 43.346,332.669 40.639 C 333.873 38.802,334.031 36.069,333.041 34.200 C 331.902 32.050,332.490 30.098,334.663 28.816 C 337.367 27.220,336.434 25.259,332.557 24.390 C 329.072 23.609,328.330 21.697,330.000 17.800 C 330.440 16.774,330.801 15.454,330.802 14.867 C 330.804 14.280,331.079 13.274,331.415 12.631 C 331.993 11.522,331.749 10.832,330.770 10.806 C 330.262 10.793,328.843 12.666,328.590 13.684 C 328.260 15.016,327.838 15.375,324.928 16.802 C 321.694 18.388,321.461 18.016,321.585 11.461 C 321.652 7.927,321.127 6.841,320.006 8.192 M78.678 11.118 C 78.287 16.191,76.256 18.349,72.359 17.832 C 69.683 17.477,68.530 20.282,70.635 22.029 C 71.408 22.671,70.989 23.969,69.653 25.063 L 68.600 25.927 68.592 44.063 C 68.586 56.711,68.443 62.624,68.120 63.600 C 66.952 67.132,66.799 71.492,66.663 105.171 C 66.532 137.650,66.570 140.034,67.288 144.571 C 67.708 147.227,68.205 152.280,68.391 155.800 C 68.577 159.320,68.861 163.144,69.020 164.297 C 69.239 165.876,69.139 166.844,68.617 168.210 C 67.811 170.321,68.006 170.720,70.352 171.778 C 72.068 172.552,72.800 173.746,72.800 175.770 C 72.800 177.389,73.577 178.121,74.933 177.781 C 77.396 177.163,77.977 177.982,78.345 182.600 C 78.669 186.660,80.068 187.339,81.064 183.920 C 81.711 181.703,81.966 181.500,84.070 181.529 C 85.452 181.548,85.755 181.386,86.333 180.316 C 86.700 179.637,87.528 178.462,88.174 177.703 C 89.141 176.568,89.265 176.208,88.873 175.663 C 86.968 173.006,86.601 165.783,88.225 162.894 L 89.364 160.868 88.282 158.880 C 86.772 156.105,87.001 152.202,88.792 150.200 C 90.037 148.809,90.065 147.797,89.042 141.121 C 87.854 133.365,86.926 117.211,86.600 98.600 C 86.476 91.560,86.181 82.740,85.943 79.000 C 85.579 73.279,85.608 71.661,86.122 68.800 C 86.995 63.945,87.142 62.671,87.787 54.357 C 88.139 49.825,88.620 46.226,89.017 45.157 C 90.151 42.102,91.180 37.521,91.545 33.896 C 91.827 31.103,92.125 30.050,93.014 28.708 C 94.095 27.074,94.113 26.957,93.626 24.812 C 93.350 23.595,92.877 21.271,92.574 19.647 C 92.271 18.023,91.733 16.252,91.379 15.712 C 91.025 15.171,90.648 13.710,90.542 12.464 C 90.129 7.603,88.956 6.821,87.306 10.309 C 84.466 16.312,81.447 17.369,80.618 12.651 C 80.468 11.799,80.196 10.809,80.014 10.451 C 79.831 10.093,79.513 9.356,79.307 8.814 C 79.004 8.019,78.883 8.465,78.678 11.118 M245.299 81.190 C 244.468 82.520,244.546 82.718,247.706 87.342 C 248.846 89.011,248.108 89.508,242.965 90.534 C 237.207 91.684,235.517 94.429,239.423 96.292 C 241.733 97.393,241.365 99.884,238.332 103.685 C 237.675 104.509,237.475 105.280,237.502 106.885 C 237.580 111.362,238.286 119.049,238.715 120.078 C 238.961 120.671,239.360 124.271,239.601 128.078 C 239.842 131.885,240.208 136.170,240.416 137.600 C 240.623 139.030,240.965 147.490,241.175 156.400 C 241.453 168.187,241.717 173.254,242.145 175.000 C 242.942 178.253,243.543 190.702,243.789 209.066 C 244.012 225.633,244.020 225.697,246.234 227.473 C 247.637 228.599,247.736 228.818,247.693 230.724 C 247.660 232.140,247.864 233.038,248.356 233.644 L 249.065 234.520 251.381 233.460 C 254.984 231.811,255.470 231.944,256.264 234.800 C 257.072 237.708,258.219 238.107,259.293 235.855 C 260.251 233.847,261.418 233.733,262.572 235.533 C 263.090 236.340,264.066 237.610,264.742 238.355 C 265.417 239.101,266.033 239.898,266.109 240.127 C 266.297 240.691,267.561 240.168,267.853 239.405 C 267.983 239.068,267.529 237.666,266.844 236.289 C 264.952 232.485,265.433 230.961,268.694 230.431 C 271.623 229.955,271.411 226.844,268.331 225.113 C 265.661 223.613,265.481 221.471,267.658 217.111 C 269.025 214.372,269.051 213.666,267.889 210.800 C 266.745 207.978,266.889 207.097,268.632 206.265 C 271.056 205.109,270.991 202.922,268.494 201.647 C 265.356 200.046,264.198 195.277,266.103 191.800 C 267.846 188.620,267.804 188.891,266.854 186.937 C 263.759 180.566,263.848 134.543,266.988 117.600 C 268.391 110.028,269.036 97.715,268.270 93.119 C 267.848 90.583,265.582 88.800,262.783 88.800 C 260.597 88.800,259.882 88.180,259.226 85.715 C 258.701 83.745,257.439 82.644,256.364 83.219 C 255.187 83.849,253.625 83.655,251.568 82.622 C 250.497 82.083,249.031 81.473,248.310 81.265 C 247.590 81.057,246.730 80.775,246.399 80.639 C 246.036 80.489,245.601 80.707,245.299 81.190 M141.000 86.800 C 140.652 87.895,139.559 88.405,137.268 88.542 C 135.216 88.665,132.807 90.111,131.903 91.762 C 131.170 93.101,131.449 122.584,132.218 125.088 C 133.487 129.219,134.052 132.420,134.423 137.600 C 134.636 140.570,134.993 144.620,135.215 146.600 C 135.487 149.024,135.487 155.229,135.215 165.600 C 134.993 174.070,134.809 185.771,134.806 191.602 C 134.800 201.870,134.193 210.226,133.208 213.597 C 131.616 219.045,134.674 223.582,139.960 223.614 C 141.330 223.622,142.821 223.927,143.800 224.400 C 146.232 225.575,148.387 225.441,150.197 224.003 C 151.566 222.915,151.893 222.827,153.774 223.048 L 155.844 223.292 156.287 220.429 C 156.845 216.821,157.287 216.248,159.265 216.564 C 161.144 216.864,162.029 215.749,161.177 214.157 C 160.644 213.161,160.602 213.142,157.292 212.393 C 154.032 211.656,153.957 209.619,156.843 200.240 C 157.466 198.216,157.315 197.556,156.289 197.813 C 153.753 198.450,153.506 197.352,152.967 183.097 C 152.699 176.003,152.281 168.760,152.039 167.000 C 151.796 165.240,151.529 161.100,151.445 157.800 C 151.362 154.500,151.069 146.642,150.796 140.337 C 150.133 125.060,150.707 121.299,153.174 124.763 C 155.017 127.352,156.410 125.245,155.592 121.101 C 154.774 116.954,154.836 116.207,156.000 116.157 C 157.713 116.082,157.925 116.018,158.571 115.371 C 159.692 114.251,159.252 112.966,156.400 109.028 C 153.127 104.509,152.921 103.458,154.800 100.863 C 156.773 98.141,156.526 97.192,152.804 93.200 C 151.881 92.210,150.675 90.635,150.125 89.700 C 148.975 87.748,148.141 87.572,146.800 89.000 C 145.336 90.558,144.539 90.299,143.723 88.000 C 142.947 85.816,141.513 85.184,141.000 86.800 M202.800 123.463 C 202.250 124.001,201.159 125.062,200.376 125.820 C 198.875 127.274,197.605 127.570,196.837 126.644 C 195.683 125.254,194.458 125.617,193.757 127.558 C 192.613 130.725,189.514 132.272,187.219 130.820 C 186.810 130.562,186.479 130.680,186.101 131.219 C 185.414 132.200,185.980 133.356,187.503 134.083 C 189.306 134.943,189.203 136.536,187.265 137.759 C 184.890 139.258,184.843 141.601,187.146 143.665 C 189.392 145.678,189.664 146.921,188.400 149.400 C 187.322 151.515,187.388 152.437,188.800 154.938 C 190.328 157.646,190.370 160.090,189.038 168.748 C 188.097 174.862,188.070 175.749,187.820 209.000 C 187.467 256.100,187.271 258.476,183.652 259.634 C 179.855 260.849,179.445 262.852,182.600 264.764 C 185.111 266.286,185.435 267.363,183.838 268.884 C 181.439 271.169,180.739 274.081,182.478 274.536 C 183.417 274.782,184.400 274.474,184.400 273.935 C 184.400 273.726,185.221 273.192,186.225 272.748 C 188.767 271.623,189.779 272.271,190.131 275.246 C 190.545 278.743,192.059 279.213,193.700 276.354 C 194.492 274.975,195.932 274.820,197.000 276.000 C 198.050 277.160,199.138 277.025,199.412 275.700 C 200.128 272.241,200.138 272.227,202.182 271.546 C 205.142 270.559,206.090 268.213,206.604 260.600 C 206.738 258.620,207.219 255.850,207.675 254.444 C 208.408 252.180,208.447 251.643,208.021 249.737 C 207.422 247.059,207.720 245.618,209.160 244.238 C 210.429 243.022,210.427 241.457,209.155 240.776 C 207.347 239.808,207.018 237.183,208.304 233.993 C 208.527 233.439,208.918 231.639,209.173 229.993 C 209.427 228.347,210.155 225.470,210.789 223.600 C 211.423 221.730,212.219 218.400,212.556 216.200 C 212.894 214.000,213.670 209.950,214.280 207.200 C 216.195 198.569,215.883 167.753,213.829 162.695 C 213.540 161.983,213.180 160.410,213.029 159.200 C 212.879 157.990,212.426 155.650,212.022 154.000 C 211.619 152.350,211.280 150.063,211.268 148.917 C 211.245 146.710,210.857 145.693,209.348 143.878 C 208.495 142.853,208.435 142.502,208.660 139.842 C 208.862 137.460,208.751 136.478,208.053 134.462 C 207.584 133.106,207.200 131.458,207.200 130.798 C 207.200 129.653,206.773 129.052,204.860 127.504 C 203.937 126.757,203.723 125.237,204.440 124.520 C 204.883 124.077,204.581 122.364,204.073 122.442 C 203.923 122.465,203.350 122.925,202.800 123.463 M70.598 180.004 C 70.461 180.226,70.470 180.789,70.618 181.256 C 70.923 182.219,71.583 181.573,71.594 180.300 C 71.601 179.537,70.997 179.358,70.598 180.004 " stroke="none" fill="#d8f9fb" fill-rule="evenodd"></path><path id="path2" d="M256.000 279.665 C 236.661 280.015,218.456 281.041,217.092 281.857 C 211.513 285.194,210.663 291.112,215.239 294.755 C 217.857 296.840,218.833 296.961,228.737 296.433 C 243.339 295.653,249.683 295.912,251.116 297.345 C 251.810 298.039,251.850 305.158,251.187 310.155 C 250.980 311.720,250.538 315.487,250.207 318.527 C 249.875 321.566,249.258 325.436,248.835 327.127 C 248.412 328.817,247.876 331.190,247.643 332.400 C 245.792 342.023,245.357 380.123,247.035 385.679 C 247.470 387.116,251.971 389.692,254.049 389.692 C 256.694 389.692,259.238 388.159,260.689 385.689 L 261.800 383.800 261.674 368.800 C 261.514 349.719,262.598 333.571,264.373 328.600 C 264.881 327.176,265.555 323.434,266.028 319.400 C 266.467 315.660,266.991 311.250,267.192 309.600 C 267.393 307.950,267.731 304.778,267.943 302.550 C 268.659 295.008,267.437 295.470,286.400 295.568 C 308.515 295.682,311.589 294.936,312.391 289.260 C 313.410 282.055,310.553 279.890,299.800 279.715 C 282.564 279.436,269.463 279.421,256.000 279.665 M180.400 285.602 C 177.210 285.774,173.268 286.117,171.641 286.364 C 170.013 286.612,165.693 287.071,162.041 287.385 C 157.537 287.773,154.364 288.271,152.181 288.933 C 150.410 289.470,147.620 290.208,145.981 290.573 C 135.044 293.007,131.345 303.453,140.242 306.781 L 142.485 307.620 147.342 306.609 C 150.014 306.053,153.253 305.267,154.541 304.862 C 159.832 303.200,160.178 303.870,160.276 315.982 C 160.346 324.570,160.553 328.636,161.623 342.400 C 162.206 349.907,162.539 361.282,162.234 363.314 C 161.865 365.772,160.939 366.251,156.122 366.474 C 150.100 366.753,147.050 369.378,147.050 374.282 C 147.050 380.221,152.786 382.829,164.600 382.260 C 166.800 382.154,172.470 381.882,177.200 381.656 C 197.585 380.683,195.329 381.047,197.599 378.356 C 200.523 374.887,200.285 371.745,196.823 368.139 C 194.390 365.604,193.463 365.383,185.836 365.516 C 177.746 365.658,178.394 366.361,177.981 357.000 C 177.554 347.347,176.515 331.409,175.961 326.005 C 175.677 323.237,175.570 318.295,175.693 313.574 C 175.987 302.274,176.490 301.477,183.400 301.357 C 190.628 301.232,193.601 300.152,195.393 297.000 C 197.846 292.686,196.490 288.785,191.705 286.395 C 189.495 285.292,188.039 285.189,180.400 285.602 " stroke="none" fill="#041cb2" fill-rule="evenodd"></path></g></svg>